<mxfile host="app.diagrams.net" modified="2024-06-10T11:55:45.441Z" agent="Mozilla/5.0 (Macintosh; Intel Mac OS X 10_15_7) AppleWebKit/537.36 (KHTML, like Gecko) Chrome/125.0.0.0 Safari/537.36" version="24.5.2" etag="iCoF_RLl3e5ZYL_UrIIs" type="github">
  <diagram name="Seite-1" id="EmgKcAw5bgLEWUzQ1nSg">
    <mxGraphModel>
      <root>
        <mxCell id="0" />
        <mxCell id="1" parent="0" />
      </root>
    </mxGraphModel>
  </diagram>
</mxfile>
